<?xml version="1.0" encoding="iso-8859-1"?>
<!-- Generator: Adobe Illustrator 16.0.0, SVG Export Plug-In . SVG Version: 6.00 Build 0)  -->
<!DOCTYPE svg PUBLIC "-//W3C//DTD SVG 1.1//EN" "http://www.w3.org/Graphics/SVG/1.1/DTD/svg11.dtd">
<svg version="1.1" id="Capa_1" xmlns="http://www.w3.org/2000/svg" xmlns:xlink="http://www.w3.org/1999/xlink" x="0px" y="0px"
	 width="896.699px" height="896.699px" viewBox="0 0 896.699 896.699" style="enable-background:new 0 0 896.699 896.699;"
	 xml:space="preserve">
<g>
	<path d="M251.9,896.649c67.3,0,130.5-26.199,178.1-73.8L822.9,429.95c47.6-47.601,73.799-110.8,73.799-178.101
		c0-67.3-26.199-130.5-73.799-178.1c-47.5-47.6-110.801-73.7-178-73.7c-67.301,0-130.5,26.2-178.1,73.8L73.8,466.75
		C26.2,514.35,0,577.55,0,644.85s26.2,130.5,73.8,178.101C121.4,870.45,184.7,896.649,251.9,896.649z M152.6,543.45l174.3-174.301
		c11.7-11.699,30.7-11.699,42.4,0l158.2,158.2c11.699,11.7,11.699,30.7,0,42.4L353.2,744.149c-27,27-63.5,42.601-101.7,42.5
		c-37.4-0.1-72.6-14.6-99.2-40.8C96.4,690.649,97.1,599.05,152.6,543.45z"/>
</g>
<g>
</g>
<g>
</g>
<g>
</g>
<g>
</g>
<g>
</g>
<g>
</g>
<g>
</g>
<g>
</g>
<g>
</g>
<g>
</g>
<g>
</g>
<g>
</g>
<g>
</g>
<g>
</g>
<g>
</g>
</svg>
