<?xml version="1.0" encoding="iso-8859-1"?>
<!-- Generator: Adobe Illustrator 16.0.0, SVG Export Plug-In . SVG Version: 6.00 Build 0)  -->
<!DOCTYPE svg PUBLIC "-//W3C//DTD SVG 1.1//EN" "http://www.w3.org/Graphics/SVG/1.1/DTD/svg11.dtd">
<svg version="1.1" id="Capa_1" xmlns="http://www.w3.org/2000/svg" xmlns:xlink="http://www.w3.org/1999/xlink" x="0px" y="0px"
	 width="974.128px" height="974.128px" viewBox="0 0 974.128 974.128" style="enable-background:new 0 0 974.128 974.128;"
	 xml:space="preserve">
<g>
	<g>
		<path d="M476.6,774.064l59.9-94.799l50.1-79.301c0.2-4.801,0.301-9.5,0.301-14.301c0-65.299-21-127.099-60.7-178.699
			c-32.5-42.4-76.7-75.4-126.2-94.8v-134.2h-73.5v188.4l26.8,7.5c45.2,12.7,86,40.4,114.8,77.9c29.7,38.7,45.4,85,45.4,133.899
			c0,9-0.6,18-1.6,26.9c-0.601,5-4.9,8.801-9.9,8.801H85.1c-5.1,0-9.3-3.801-9.9-8.801c-1.1-8.799-1.6-17.799-1.6-26.9
			c0-48.898,15.7-95.199,45.4-133.899c28.8-37.5,69.6-65.1,114.8-77.9l26.8-7.5v-188.4H187v134.2c-49.5,19.4-93.7,52.4-126.3,94.8
			C21,458.664,0,520.365,0,585.664c0,78.4,30.5,152.102,86,207.5c55.4,55.4,129.1,86,207.5,86c49.1,0,96.4-12,138.5-34.6
			L476.6,774.064z"/>
		<path d="M183.5,31.464c-16.6,0-30,13.4-30,30v51.5c0,16.6,13.4,30,30,30h3.6H400h1.2c16.6,0,30-13.4,30-30v-51.5
			c0-16.6-13.4-30-30-30H183.5z"/>
		<path d="M782.5,602.664v-152h-72.2v172.9l75.2,118.9c4.2,6.699-0.6,15.301-8.5,15.301H614c-7.9,0-12.7-8.701-8.5-15.301
			l75.3-118.9v-172.9h-72.2v151.9l-28.1,44.4l-108.4,171.6L421.7,898.365c-12.2,19.199,1.7,44.299,24.399,44.299H945.2
			c22.7,0,36.6-25.1,24.399-44.299L782.5,602.664z"/>
		<path d="M588.6,412.164c3.101,1.601,6.4,2.801,10,3.2c1.4,0.2,2.7,0.3,4.101,0.3h5.899H782.4h5.899c1.4,0,2.8-0.1,4.101-0.3
			c3.6-0.5,6.899-1.6,10-3.2c9.399-5.1,15.899-15,15.899-26.5v-38.6c0-16.6-13.399-30-30-30H602.8c-16.6,0-30,13.4-30,30v38.6
			C572.8,397.164,579.2,407.064,588.6,412.164z"/>
	</g>
</g>
<g>
</g>
<g>
</g>
<g>
</g>
<g>
</g>
<g>
</g>
<g>
</g>
<g>
</g>
<g>
</g>
<g>
</g>
<g>
</g>
<g>
</g>
<g>
</g>
<g>
</g>
<g>
</g>
<g>
</g>
</svg>
